<?xml version="1.0" encoding="UTF-8"?><svg id="Ebene_2" xmlns="http://www.w3.org/2000/svg" xmlns:xlink="http://www.w3.org/1999/xlink" viewBox="0 0 1000 281"><defs><style>.cls-1{fill:url(#Unbenannter_Verlauf_11);}</style><linearGradient id="Unbenannter_Verlauf_11" x1="830.79" y1="511.54" x2="94.68" y2="64.7" gradientUnits="userSpaceOnUse"><stop offset="0" stop-color="#f7de20"/><stop offset=".5" stop-color="#6db654"/><stop offset="1" stop-color="#2e6db4"/></linearGradient></defs><g id="Ebene_1-2"><g><g><path d="m309.26,237.62h16.91c0,7.65,4.29,11,12.74,11,7.65,0,11.47-2.78,11.47-8.46,0-6.49-4.17-9.27-15.87-11.12-17.49-2.78-24.09-9.27-24.09-23.63,0-16.1,9.84-24.21,28.61-24.21s27.68,7.88,27.68,24.44h-16.91c0-6.83-3.59-10.31-11.12-10.31s-10.89,3.13-10.89,8.34c0,5.91,4.05,8.57,15.17,10.19,18.42,2.66,24.79,9.73,24.79,24.55,0,16.33-9.61,24.32-29.3,24.32s-29.19-7.88-29.19-25.13Z"/><path d="m378.3,234.96v-52.35h17.37v51.77c0,9.85,3.36,13.44,12.39,13.44s12.39-3.59,12.39-13.44v-51.77h16.79v52.35c0,19.46-8.8,27.8-29.42,27.8s-29.54-8.34-29.54-27.8Z"/><path d="m512.55,208.32c0,17.95-8.45,25.48-28.38,25.48h-13.78v27.57h-17.37v-78.76h31.16c19.92,0,28.38,7.65,28.38,25.71Zm-17.37-.12c0-7.53-3.71-10.77-12.51-10.77h-12.28v21.55h12.28c8.8,0,12.51-3.24,12.51-10.77Z"/><path d="m550.67,232.29h-9.38v29.07h-17.37v-78.76h32.2c19.34,0,26.99,7.3,26.99,24.9,0,12.86-4.17,20.27-14.01,23.16l17.03,30.69h-19.81l-15.64-29.07Zm-9.38-14.83h12.97c8.45,0,11.47-2.9,11.47-9.96s-3.01-10.08-11.47-10.08h-12.97v20.04Z"/><path d="m636.15,245.5h-24.79l-4.98,15.87h-17.61l26.41-78.76h17.95l26.41,78.76h-18.42l-4.98-15.87Zm-20.5-14.48h16.22l-8.11-28.72-8.11,28.72Z"/></g><g><path d="m663.96,239.01h10.42c0,9.5,6.14,14.25,18.07,14.25s17.26-4.28,17.26-12.62-5.1-12.39-19.57-14.36c-18.07-2.43-24.79-8.57-24.79-22.12,0-15.06,9.61-22.93,27.33-22.93s26.18,7.64,26.18,23.05h-10.42c0-9.15-5.21-13.55-16.1-13.55s-16.68,4.4-16.68,12.39,4.86,11.58,18.18,13.32c18.99,2.43,26.18,8.92,26.18,23.28,0,15.4-9.27,23.05-27.68,23.05s-28.38-7.88-28.38-23.74Z"/><path d="m787.78,251.87v9.5h-52.7v-78.76h51.54v9.5h-41.12v24.21h35.33v9.5h-35.33v26.06h42.28Z"/><path d="m861.34,182.6v78.76h-10.19l-38.45-63.47v63.47h-10.08v-78.76h12.39l36.25,59.88v-59.88h10.08Z"/><path d="m876.18,239.01h10.42c0,9.5,6.14,14.25,18.07,14.25s17.26-4.28,17.26-12.62-5.1-12.39-19.57-14.36c-18.07-2.43-24.79-8.57-24.79-22.12,0-15.06,9.61-22.93,27.33-22.93s26.18,7.64,26.18,23.05h-10.42c0-9.15-5.21-13.55-16.1-13.55s-16.68,4.4-16.68,12.39,4.86,11.58,18.18,13.32c18.99,2.43,26.18,8.92,26.18,23.28,0,15.4-9.27,23.05-27.68,23.05s-28.38-7.88-28.38-23.74Z"/><path d="m1000,251.87v9.5h-52.7v-78.76h51.54v9.5h-41.12v24.21h35.33v9.5h-35.33v26.06h42.28Z"/></g><path class="cls-1" d="m519.07,66.9c-4.39-13.38-18.86-20.69-32.24-16.3-12.83,4.21-20.07,17.68-16.78,30.57l-53.45,30.86-78.2-45.15-78.2,45.15-54.96-31.73v-43.78h16.96V0h-78.51v36.52h16.96v42.69l-56.88,32.84-53.48-30.88c1.2-4.67,1.06-9.59-.49-14.28-4.39-13.38-18.86-20.69-32.24-16.3C4.2,55-3.11,69.46,1.29,82.84c2.13,6.48,6.65,11.75,12.74,14.82,3.63,1.83,7.55,2.76,11.5,2.76,2.68,0,5.38-.43,8-1.29,3.77-1.24,7.12-3.29,9.87-5.98l53.44,30.85v82.31l-53.44,30.85c-1.84-1.79-3.96-3.32-6.32-4.51-6.09-3.08-13.01-3.6-19.49-1.47-6.48,2.13-11.75,6.65-14.82,12.74-3.08,6.09-3.6,13.01-1.47,19.49,3.53,10.74,13.55,17.58,24.29,17.57,2.63,0,5.31-.41,7.95-1.28,12.83-4.21,20.07-17.68,16.78-30.57l53.49-30.88,78.23,45.17,85.11-49.14v-90.29l71.28-41.15,78.2,45.15,60.35-34.84c1.84,1.79,3.96,3.32,6.32,4.51,3.63,1.83,7.55,2.76,11.5,2.76,2.68,0,5.38-.43,8-1.29,6.48-2.13,11.75-6.65,14.82-12.74,3.08-6.09,3.6-13.01,1.47-19.49Zm-483.06,13.26c-1.24,2.45-3.24,4.34-5.72,5.43-.35.15-.71.29-1.08.41-2.97.98-6.15.74-8.94-.68-2.79-1.41-4.87-3.83-5.84-6.8-2.02-6.14,1.34-12.77,7.47-14.79,1.21-.4,2.44-.59,3.65-.59,4.93,0,9.52,3.13,11.14,8.06.26.79.43,1.59.52,2.4.25,2.23-.15,4.49-1.19,6.54Zm1.19,176.56c-.49,4.43-3.49,8.39-7.99,9.87-6.14,2.02-12.77-1.34-14.79-7.47-.98-2.97-.74-6.15.68-8.94,1.41-2.79,3.83-4.87,6.8-5.84,1.2-.4,2.44-.59,3.67-.59,1.61,0,3.21.34,4.72,1.01.19.08.37.17.55.26,2.79,1.41,4.87,3.83,5.84,6.8h0c.54,1.64.69,3.31.51,4.92Zm216.1-50.4l-71.28,41.15-71.28-41.15v-82.31l62.88-36.3V23.28h-16.68v-10.05h52.04v10.05h-16.68v65.51l61,35.22v82.31Zm251.96-126.16c-1.41,2.79-3.83,4.87-6.8,5.84-2.78.91-5.72.75-8.37-.42-.19-.08-.38-.16-.57-.25-2.79-1.41-4.87-3.83-5.84-6.8-.54-1.64-.69-3.31-.51-4.92.49-4.43,3.49-8.39,7.99-9.87,1.21-.4,2.44-.59,3.65-.59,4.93,0,9.52,3.13,11.14,8.06.98,2.97.74,6.15-.67,8.94Zm-323.24,28.64l-3.79,3.79c-1.32,1.32-32.32,32.63-36.69,58.8-2.04,12.21.62,23.06,7.67,31.39,7.52,8.88,19.79,14.18,32.81,14.18s25.29-5.3,32.82-14.18c7.05-8.33,9.7-19.18,7.66-31.39h0c-4.36-26.2-35.37-57.48-36.69-58.8l-3.79-3.79Zm-1.13,86.56c-.61,2.37-2.74,4.02-5.18,4.02-.45,0-.9-.06-1.34-.17-14.01-3.62-16.29-18.28-16.38-18.9-.21-1.41.15-2.83,1-3.98.85-1.15,2.1-1.9,3.52-2.11,2.92-.43,5.64,1.59,6.08,4.5.14.83,1.62,8.34,8.46,10.11,1.39.36,2.55,1.23,3.28,2.47.73,1.23.93,2.68.57,4.06Z"/></g></g></svg>